<svg width="600" height="400" xmlns="http://www.w3.org/2000/svg">
  <rect width="100%" height="100%" fill="white"/>
  <text x="300" y="30" text-anchor="middle" font-size="18" font-weight="bold" fill="#2c3e50">Revenue vs Sales Scatter Plot</text>
  
  <!-- X axis -->
  <line x1="70" y1="350" x2="550" y2="350" stroke="#bdc3c7" stroke-width="1"/>
  <!-- Y axis -->
  <line x1="70" y1="50" x2="70" y2="350" stroke="#bdc3c7" stroke-width="1"/>
  <text x="310" y="390" text-anchor="middle" font-size="14" fill="#34495e">revenue</text>
  <text x="20" y="200" text-anchor="middle" font-size="14" fill="#34495e" transform="rotate(-90 20 200)">sales</text>
  <circle cx="268.3318362633132" cy="243.45794392523365" r="3" fill="#3498db" opacity="0.7"/>
<circle cx="168.11882458616708" cy="299.53271028037386" r="3" fill="#3498db" opacity="0.7"/>
<circle cx="246.89721544976263" cy="223.8317757009346" r="3" fill="#3498db" opacity="0.7"/>
<circle cx="181.17669703580134" cy="265.8878504672897" r="3" fill="#3498db" opacity="0.7"/>
<circle cx="243.2631849095342" cy="257.4766355140187" r="3" fill="#3498db" opacity="0.7"/>
<circle cx="127.03580136019505" cy="313.5514018691589" r="3" fill="#3498db" opacity="0.7"/>
<circle cx="110.89824201206211" cy="302.33644859813086" r="3" fill="#3498db" opacity="0.7"/>
<circle cx="181.05350955986142" cy="282.7102803738318" r="3" fill="#3498db" opacity="0.7"/>
<circle cx="189.12228923392786" cy="235.04672897196264" r="3" fill="#3498db" opacity="0.7"/>
<circle cx="160.35801360195046" cy="274.29906542056074" r="3" fill="#3498db" opacity="0.7"/>
<circle cx="222.13653278583342" cy="198.5981308411215" r="3" fill="#3498db" opacity="0.7"/>
<circle cx="296.172205825741" cy="173.36448598130843" r="3" fill="#3498db" opacity="0.7"/>
<circle cx="152.35082766585396" cy="271.49532710280374" r="3" fill="#3498db" opacity="0.7"/>
<circle cx="107.14102399589376" cy="319.1588785046729" r="3" fill="#3498db" opacity="0.7"/>
<circle cx="250.83921467984086" cy="263.0841121495327" r="3" fill="#3498db" opacity="0.7"/>
<circle cx="276.4006159373797" cy="178.97196261682245" r="3" fill="#3498db" opacity="0.7"/>
<circle cx="188.44475811625819" cy="263.0841121495327" r="3" fill="#3498db" opacity="0.7"/>
<circle cx="227.5567817271911" cy="209.81308411214954" r="3" fill="#3498db" opacity="0.7"/>
<circle cx="228.8502502245605" cy="277.1028037383178" r="3" fill="#3498db" opacity="0.7"/>
<circle cx="231.25240600538945" cy="277.1028037383178" r="3" fill="#3498db" opacity="0.7"/>
<circle cx="222.93725137944307" cy="268.69158878504675" r="3" fill="#3498db" opacity="0.7"/>
<circle cx="278.3716155524188" cy="232.2429906542056" r="3" fill="#3498db" opacity="0.7"/>
<circle cx="282.3752085204671" cy="195.7943925233645" r="3" fill="#3498db" opacity="0.7"/>
<circle cx="301.77723598100863" cy="221.02803738317758" r="3" fill="#3498db" opacity="0.7"/>
<circle cx="290.4439881945335" cy="153.73831775700936" r="3" fill="#3498db" opacity="0.7"/>
<circle cx="284.46939561144615" cy="145.32710280373834" r="3" fill="#3498db" opacity="0.7"/>
<circle cx="207.29244193506995" cy="291.1214953271028" r="3" fill="#3498db" opacity="0.7"/>
<circle cx="159.6188887463108" cy="305.14018691588785" r="3" fill="#3498db" opacity="0.7"/>
<circle cx="312.9872962915437" cy="201.4018691588785" r="3" fill="#3498db" opacity="0.7"/>
<circle cx="380.0628769408444" cy="145.32710280373834" r="3" fill="#3498db" opacity="0.7"/>
<circle cx="275.04555370204025" cy="246.26168224299067" r="3" fill="#3498db" opacity="0.7"/>
<circle cx="328.9400744257667" cy="136.9158878504673" r="3" fill="#3498db" opacity="0.7"/>
<circle cx="248.86821506480175" cy="209.81308411214954" r="3" fill="#3498db" opacity="0.7"/>
<circle cx="273.07455408700116" cy="223.8317757009346" r="3" fill="#3498db" opacity="0.7"/>
<circle cx="139.9088925959194" cy="307.94392523364485" r="3" fill="#3498db" opacity="0.7"/>
<circle cx="246.77402797382265" cy="204.20560747663552" r="3" fill="#3498db" opacity="0.7"/>
<circle cx="354.3782882073656" cy="176.16822429906543" r="3" fill="#3498db" opacity="0.7"/>
<circle cx="286.80995765430515" cy="164.9532710280374" r="3" fill="#3498db" opacity="0.7"/>
<circle cx="416.15680739124855" cy="131.30841121495328" r="3" fill="#3498db" opacity="0.7"/>
<circle cx="445.16745797510583" cy="142.52336448598132" r="3" fill="#3498db" opacity="0.7"/>
<circle cx="241.6617477223149" cy="243.45794392523365" r="3" fill="#3498db" opacity="0.7"/>
<circle cx="276.15424098549977" cy="246.26168224299067" r="3" fill="#3498db" opacity="0.7"/>
<circle cx="276.27742846143974" cy="240.65420560747663" r="3" fill="#3498db" opacity="0.7"/>
<circle cx="347.41819581675867" cy="173.36448598130843" r="3" fill="#3498db" opacity="0.7"/>
<circle cx="277.20133453098936" cy="178.97196261682245" r="3" fill="#3498db" opacity="0.7"/>
<circle cx="348.958039266008" cy="192.99065420560748" r="3" fill="#3498db" opacity="0.7"/>
<circle cx="233.03862440651866" cy="212.61682242990653" r="3" fill="#3498db" opacity="0.7"/>
<circle cx="182.4701655331708" cy="268.69158878504675" r="3" fill="#3498db" opacity="0.7"/>
<circle cx="288.34980110355446" cy="240.65420560747663" r="3" fill="#3498db" opacity="0.7"/>
<circle cx="379.26215834723473" cy="134.11214953271028" r="3" fill="#3498db" opacity="0.7"/>
<circle cx="292.7229564994226" cy="215.42056074766356" r="3" fill="#3498db" opacity="0.7"/>
<circle cx="366.01950468369046" cy="128.50467289719626" r="3" fill="#3498db" opacity="0.7"/>
<circle cx="198.4229436673938" cy="229.4392523364486" r="3" fill="#3498db" opacity="0.7"/>
<circle cx="431.9248043115617" cy="120.09345794392524" r="3" fill="#3498db" opacity="0.7"/>
<circle cx="226.8176568715514" cy="212.61682242990653" r="3" fill="#3498db" opacity="0.7"/>
<circle cx="215.29962787116642" cy="260.2803738317757" r="3" fill="#3498db" opacity="0.7"/>
<circle cx="393.1823431284486" cy="162.1495327102804" r="3" fill="#3498db" opacity="0.7"/>
<circle cx="334.1755421532144" cy="164.9532710280374" r="3" fill="#3498db" opacity="0.7"/>
<circle cx="438.4537405363788" cy="100.46728971962617" r="3" fill="#3498db" opacity="0.7"/>
<circle cx="383.8816886949827" cy="103.27102803738319" r="3" fill="#3498db" opacity="0.7"/>
<circle cx="274.86077248813035" cy="221.02803738317758" r="3" fill="#3498db" opacity="0.7"/>
<circle cx="138.43064288464006" cy="279.9065420560748" r="3" fill="#3498db" opacity="0.7"/>
<circle cx="258.16886949826767" cy="195.7943925233645" r="3" fill="#3498db" opacity="0.7"/>
<circle cx="324.3821378159887" cy="181.77570093457945" r="3" fill="#3498db" opacity="0.7"/>
<circle cx="271.041960733992" cy="173.36448598130843" r="3" fill="#3498db" opacity="0.7"/>
<circle cx="472.0223277300141" cy="108.87850467289721" r="3" fill="#3498db" opacity="0.7"/>
<circle cx="274.9839599640703" cy="221.02803738317758" r="3" fill="#3498db" opacity="0.7"/>
<circle cx="348.5884768381881" cy="92.05607476635515" r="3" fill="#3498db" opacity="0.7"/>
<circle cx="250.16168356217116" cy="263.0841121495327" r="3" fill="#3498db" opacity="0.7"/>
<circle cx="228.35750032080074" cy="201.4018691588785" r="3" fill="#3498db" opacity="0.7"/>
<circle cx="451.8811754138329" cy="125.70093457943926" r="3" fill="#3498db" opacity="0.7"/>
<circle cx="278.3716155524188" cy="148.13084112149534" r="3" fill="#3498db" opacity="0.7"/>
<circle cx="284.40780187347616" cy="156.54205607476638" r="3" fill="#3498db" opacity="0.7"/>
<circle cx="323.8893879122289" cy="153.73831775700936" r="3" fill="#3498db" opacity="0.7"/>
<circle cx="408.8271525728218" cy="94.85981308411215" r="3" fill="#3498db" opacity="0.7"/>
<circle cx="337.6863852175029" cy="198.5981308411215" r="3" fill="#3498db" opacity="0.7"/>
<circle cx="385.2983446682921" cy="176.16822429906543" r="3" fill="#3498db" opacity="0.7"/>
<circle cx="300.853329911459" cy="142.52336448598132" r="3" fill="#3498db" opacity="0.7"/>
<circle cx="406.24021557808294" cy="125.70093457943926" r="3" fill="#3498db" opacity="0.7"/>
<circle cx="341.19722828179135" cy="148.13084112149534" r="3" fill="#3498db" opacity="0.7"/>
<circle cx="464.87745412549725" cy="117.28971962616822" r="3" fill="#3498db" opacity="0.7"/>
<circle cx="291.55267547799303" cy="178.97196261682245" r="3" fill="#3498db" opacity="0.7"/>
<circle cx="235.19440523546774" cy="218.22429906542055" r="3" fill="#3498db" opacity="0.7"/>
<circle cx="235.56396766328757" cy="195.7943925233645" r="3" fill="#3498db" opacity="0.7"/>
<circle cx="433.1566790709611" cy="136.9158878504673" r="3" fill="#3498db" opacity="0.7"/>
<circle cx="550" cy="64.01869158878503" r="3" fill="#3498db" opacity="0.7"/>
<circle cx="425.0263056589246" cy="150.93457943925236" r="3" fill="#3498db" opacity="0.7"/>
<circle cx="357.82753753368405" cy="106.07476635514018" r="3" fill="#3498db" opacity="0.7"/>
<circle cx="290.0744257667137" cy="181.77570093457945" r="3" fill="#3498db" opacity="0.7"/>
<circle cx="231.1292185294495" cy="192.99065420560748" r="3" fill="#3498db" opacity="0.7"/>
<circle cx="206.61491081740024" cy="260.2803738317757" r="3" fill="#3498db" opacity="0.7"/>
<circle cx="308.2445784678557" cy="207.00934579439252" r="3" fill="#3498db" opacity="0.7"/>
<circle cx="374.3962530476068" cy="89.25233644859816" r="3" fill="#3498db" opacity="0.7"/>
<circle cx="291.4294880020531" cy="162.1495327102804" r="3" fill="#3498db" opacity="0.7"/>
<circle cx="302.7011420505582" cy="125.70093457943926" r="3" fill="#3498db" opacity="0.7"/>
<circle cx="233.28499935839858" cy="195.7943925233645" r="3" fill="#3498db" opacity="0.7"/>
<circle cx="273.9984601565508" cy="218.22429906542055" r="3" fill="#3498db" opacity="0.7"/>
<circle cx="286.1324265366354" cy="153.73831775700936" r="3" fill="#3498db" opacity="0.7"/>
<circle cx="485.4497626074682" cy="50" r="3" fill="#3498db" opacity="0.7"/>
<circle cx="300.91492364942894" cy="190.1869158878505" r="3" fill="#3498db" opacity="0.7"/>
<circle cx="360.291287052483" cy="173.36448598130843" r="3" fill="#3498db" opacity="0.7"/>
<circle cx="336.3929167201334" cy="181.77570093457945" r="3" fill="#3498db" opacity="0.7"/>
<circle cx="337.6863852175029" cy="111.6822429906542" r="3" fill="#3498db" opacity="0.7"/>
<circle cx="294.4475811625818" cy="170.5607476635514" r="3" fill="#3498db" opacity="0.7"/>
<circle cx="272.5818041832414" cy="176.16822429906543" r="3" fill="#3498db" opacity="0.7"/>
<circle cx="511.7502887206467" cy="64.01869158878503" r="3" fill="#3498db" opacity="0.7"/>
<circle cx="346.555883485179" cy="122.89719626168224" r="3" fill="#3498db" opacity="0.7"/>
<circle cx="329.4328243295265" cy="178.97196261682245" r="3" fill="#3498db" opacity="0.7"/>
<circle cx="408.4575901450019" cy="139.7196261682243" r="3" fill="#3498db" opacity="0.7"/>
<circle cx="428.845117413063" cy="58.41121495327104" r="3" fill="#3498db" opacity="0.7"/>
<circle cx="307.690234826126" cy="153.73831775700936" r="3" fill="#3498db" opacity="0.7"/>
<circle cx="237.53496727832672" cy="223.8317757009346" r="3" fill="#3498db" opacity="0.7"/>
<circle cx="432.17117926344156" cy="86.4485981308411" r="3" fill="#3498db" opacity="0.7"/>
<circle cx="257.368150904658" cy="195.7943925233645" r="3" fill="#3498db" opacity="0.7"/>
<circle cx="430.6929295521622" cy="66.82242990654208" r="3" fill="#3498db" opacity="0.7"/>
<circle cx="522.344411651482" cy="50" r="3" fill="#3498db" opacity="0.7"/>
<circle cx="382.7730014115231" cy="150.93457943925236" r="3" fill="#3498db" opacity="0.7"/>
<circle cx="183.39407160272037" cy="249.06542056074767" r="3" fill="#3498db" opacity="0.7"/>
<circle cx="350.74425766713716" cy="190.1869158878505" r="3" fill="#3498db" opacity="0.7"/>
<circle cx="481.19979468754013" cy="103.27102803738319" r="3" fill="#3498db" opacity="0.7"/>
<circle cx="449.7253945848839" cy="125.70093457943926" r="3" fill="#3498db" opacity="0.7"/>
<circle cx="286.1940202746054" cy="159.34579439252337" r="3" fill="#3498db" opacity="0.7"/>
<circle cx="354.5630694212755" cy="204.20560747663552" r="3" fill="#3498db" opacity="0.7"/>
<circle cx="337.13204157577314" cy="176.16822429906543" r="3" fill="#3498db" opacity="0.7"/>
<circle cx="211.04965995123828" cy="274.29906542056074" r="3" fill="#3498db" opacity="0.7"/>
<circle cx="243.20159117156422" cy="209.81308411214954" r="3" fill="#3498db" opacity="0.7"/>
<circle cx="421.70024380854613" cy="55.60747663551405" r="3" fill="#3498db" opacity="0.7"/>
<circle cx="396.5084049788272" cy="58.41121495327104" r="3" fill="#3498db" opacity="0.7"/>
<circle cx="391.2113435134095" cy="178.97196261682245" r="3" fill="#3498db" opacity="0.7"/>
<circle cx="515.4459129988452" cy="58.41121495327104" r="3" fill="#3498db" opacity="0.7"/>
<circle cx="309.0452970614654" cy="134.11214953271028" r="3" fill="#3498db" opacity="0.7"/>
<circle cx="270.36442961632235" cy="243.45794392523365" r="3" fill="#3498db" opacity="0.7"/>
<circle cx="247.3899653535224" cy="209.81308411214954" r="3" fill="#3498db" opacity="0.7"/>
<circle cx="474.0549210830232" cy="103.27102803738319" r="3" fill="#3498db" opacity="0.7"/>
<circle cx="275.04555370204025" cy="181.77570093457945" r="3" fill="#3498db" opacity="0.7"/>
<circle cx="338.54869754908253" cy="176.16822429906543" r="3" fill="#3498db" opacity="0.7"/>
<circle cx="384.86718850250224" cy="156.54205607476638" r="3" fill="#3498db" opacity="0.7"/>
<circle cx="434.14217887848065" cy="145.32710280373834" r="3" fill="#3498db" opacity="0.7"/>
<circle cx="185.4882586936995" cy="254.6728971962617" r="3" fill="#3498db" opacity="0.7"/>
<circle cx="272.33542923136145" cy="207.00934579439252" r="3" fill="#3498db" opacity="0.7"/>
<circle cx="426.566149108174" cy="114.48598130841123" r="3" fill="#3498db" opacity="0.7"/>
<circle cx="352.2841011163865" cy="192.99065420560748" r="3" fill="#3498db" opacity="0.7"/>
<circle cx="435.49724111382005" cy="80.84112149532712" r="3" fill="#3498db" opacity="0.7"/>
<circle cx="461.8593609649686" cy="103.27102803738319" r="3" fill="#3498db" opacity="0.7"/>
<circle cx="260.6326190170666" cy="164.9532710280374" r="3" fill="#3498db" opacity="0.7"/>
<circle cx="239.69074810727577" cy="212.61682242990653" r="3" fill="#3498db" opacity="0.7"/>
<circle cx="285.70127037084563" cy="240.65420560747663" r="3" fill="#3498db" opacity="0.7"/>
<circle cx="522.7139740793019" cy="75.23364485981307" r="3" fill="#3498db" opacity="0.7"/>
<circle cx="376.79840882843575" cy="80.84112149532712" r="3" fill="#3498db" opacity="0.7"/>
<circle cx="455.0840497882715" cy="128.50467289719626" r="3" fill="#3498db" opacity="0.7"/>
<circle cx="365.5883485179007" cy="184.57943925233647" r="3" fill="#3498db" opacity="0.7"/>
<circle cx="425.14949313486466" cy="128.50467289719626" r="3" fill="#3498db" opacity="0.7"/>
<circle cx="220.47350186064418" cy="232.2429906542056" r="3" fill="#3498db" opacity="0.7"/>
<circle cx="188.81432054407804" cy="285.5140186915888" r="3" fill="#3498db" opacity="0.7"/>
<circle cx="313.48004619530343" cy="153.73831775700936" r="3" fill="#3498db" opacity="0.7"/>
<circle cx="341.997946875401" cy="212.61682242990653" r="3" fill="#3498db" opacity="0.7"/>
<circle cx="387.82368792506094" cy="139.7196261682243" r="3" fill="#3498db" opacity="0.7"/>
<circle cx="494.3808546131143" cy="97.66355140186917" r="3" fill="#3498db" opacity="0.7"/>
<circle cx="276.3390221994097" cy="201.4018691588785" r="3" fill="#3498db" opacity="0.7"/>
<circle cx="197.1294751700244" cy="232.2429906542056" r="3" fill="#3498db" opacity="0.7"/>
<circle cx="194.78891312716542" cy="268.69158878504675" r="3" fill="#3498db" opacity="0.7"/>
<circle cx="294.016424996792" cy="164.9532710280374" r="3" fill="#3498db" opacity="0.7"/>
<circle cx="277.20133453098936" cy="207.00934579439252" r="3" fill="#3498db" opacity="0.7"/>
<circle cx="256.9369947388682" cy="240.65420560747663" r="3" fill="#3498db" opacity="0.7"/>
<circle cx="275.4151161298601" cy="223.8317757009346" r="3" fill="#3498db" opacity="0.7"/>
<circle cx="389.4867188502502" cy="134.11214953271028" r="3" fill="#3498db" opacity="0.7"/>
<circle cx="134.1806749647119" cy="282.7102803738318" r="3" fill="#3498db" opacity="0.7"/>
<circle cx="242.8320287437444" cy="232.2429906542056" r="3" fill="#3498db" opacity="0.7"/>
<circle cx="309.1068907994354" cy="153.73831775700936" r="3" fill="#3498db" opacity="0.7"/>
<circle cx="346.1247273193892" cy="209.81308411214954" r="3" fill="#3498db" opacity="0.7"/>
<circle cx="297.71204927499036" cy="164.9532710280374" r="3" fill="#3498db" opacity="0.7"/>
<circle cx="329.00166816373667" cy="176.16822429906543" r="3" fill="#3498db" opacity="0.7"/>
<circle cx="377.96868984986526" cy="153.73831775700936" r="3" fill="#3498db" opacity="0.7"/>
<circle cx="247.26677787758246" cy="265.8878504672897" r="3" fill="#3498db" opacity="0.7"/>
<circle cx="129.99230078275374" cy="302.33644859813086" r="3" fill="#3498db" opacity="0.7"/>
<circle cx="275.84627229564995" cy="204.20560747663552" r="3" fill="#3498db" opacity="0.7"/>
<circle cx="316.80610804568204" cy="190.1869158878505" r="3" fill="#3498db" opacity="0.7"/>
<circle cx="371.686128576928" cy="150.93457943925236" r="3" fill="#3498db" opacity="0.7"/>
<circle cx="227.06403182343126" cy="215.42056074766356" r="3" fill="#3498db" opacity="0.7"/>
<circle cx="255.15077633773902" cy="221.02803738317758" r="3" fill="#3498db" opacity="0.7"/>
<circle cx="251.82471448736047" cy="268.69158878504675" r="3" fill="#3498db" opacity="0.7"/>
<circle cx="220.59668933658412" cy="226.6355140186916" r="3" fill="#3498db" opacity="0.7"/>
<circle cx="213.5134094700372" cy="223.8317757009346" r="3" fill="#3498db" opacity="0.7"/>
<circle cx="229.2814063903503" cy="251.86915887850466" r="3" fill="#3498db" opacity="0.7"/>
<circle cx="383.01937636340307" cy="176.16822429906543" r="3" fill="#3498db" opacity="0.7"/>
<circle cx="220.41190812267422" cy="218.22429906542055" r="3" fill="#3498db" opacity="0.7"/>
<circle cx="356.1645066084948" cy="176.16822429906543" r="3" fill="#3498db" opacity="0.7"/>
<circle cx="178.22019761324265" cy="279.9065420560748" r="3" fill="#3498db" opacity="0.7"/>
<circle cx="102.33671243423586" cy="310.74766355140184" r="3" fill="#3498db" opacity="0.7"/>
<circle cx="262.48043115616576" cy="187.38317757009347" r="3" fill="#3498db" opacity="0.7"/>
<circle cx="245.973309380213" cy="235.04672897196264" r="3" fill="#3498db" opacity="0.7"/>
<circle cx="414.4321827280893" cy="164.9532710280374" r="3" fill="#3498db" opacity="0.7"/>
<circle cx="282.43680225843707" cy="176.16822429906543" r="3" fill="#3498db" opacity="0.7"/>
<circle cx="238.33568587193636" cy="251.86915887850466" r="3" fill="#3498db" opacity="0.7"/>
<circle cx="118.65905299627872" cy="321.96261682242994" r="3" fill="#3498db" opacity="0.7"/>
<circle cx="192.87950725009625" cy="293.9252336448598" r="3" fill="#3498db" opacity="0.7"/>
<circle cx="299.1902989862697" cy="173.36448598130843" r="3" fill="#3498db" opacity="0.7"/>
<circle cx="289.2121134351341" cy="218.22429906542055" r="3" fill="#3498db" opacity="0.7"/>
<circle cx="236.48787373283716" cy="195.7943925233645" r="3" fill="#3498db" opacity="0.7"/>
<circle cx="148.34723469780573" cy="274.29906542056074" r="3" fill="#3498db" opacity="0.7"/>
<circle cx="325.55241883741814" cy="159.34579439252337" r="3" fill="#3498db" opacity="0.7"/>
<circle cx="208.5243166944694" cy="265.8878504672897" r="3" fill="#3498db" opacity="0.7"/>
<circle cx="181.66944693956114" cy="263.0841121495327" r="3" fill="#3498db" opacity="0.7"/>
<circle cx="276.4006159373797" cy="181.77570093457945" r="3" fill="#3498db" opacity="0.7"/>
<circle cx="352.40728859232644" cy="176.16822429906543" r="3" fill="#3498db" opacity="0.7"/>
<circle cx="278.6795842422687" cy="192.99065420560748" r="3" fill="#3498db" opacity="0.7"/>
<circle cx="127.89811369177467" cy="285.5140186915888" r="3" fill="#3498db" opacity="0.7"/>
<circle cx="228.66546901065058" cy="229.4392523364486" r="3" fill="#3498db" opacity="0.7"/>
<circle cx="197.0678814320544" cy="305.14018691588785" r="3" fill="#3498db" opacity="0.7"/>
<circle cx="241.2305915565251" cy="254.6728971962617" r="3" fill="#3498db" opacity="0.7"/>
<circle cx="144.7132041575773" cy="288.31775700934577" r="3" fill="#3498db" opacity="0.7"/>
<circle cx="244.24868471705378" cy="235.04672897196264" r="3" fill="#3498db" opacity="0.7"/>
<circle cx="176.86513537790324" cy="282.7102803738318" r="3" fill="#3498db" opacity="0.7"/>
<circle cx="248.12909020916206" cy="265.8878504672897" r="3" fill="#3498db" opacity="0.7"/>
<circle cx="297.15770563326066" cy="226.6355140186916" r="3" fill="#3498db" opacity="0.7"/>
<circle cx="165.83985628127806" cy="291.1214953271028" r="3" fill="#3498db" opacity="0.7"/>
<circle cx="147.97767226998587" cy="338.78504672897196" r="3" fill="#3498db" opacity="0.7"/>
<circle cx="213.94456563582702" cy="218.22429906542055" r="3" fill="#3498db" opacity="0.7"/>
<circle cx="208.9554728602592" cy="263.0841121495327" r="3" fill="#3498db" opacity="0.7"/>
<circle cx="224.35390735275246" cy="251.86915887850466" r="3" fill="#3498db" opacity="0.7"/>
<circle cx="282.74477094828694" cy="229.4392523364486" r="3" fill="#3498db" opacity="0.7"/>
<circle cx="283.4223020659566" cy="207.00934579439252" r="3" fill="#3498db" opacity="0.7"/>
<circle cx="116.25689721544975" cy="327.5700934579439" r="3" fill="#3498db" opacity="0.7"/>
<circle cx="80.71731040677531" cy="333.1775700934579" r="3" fill="#3498db" opacity="0.7"/>
<circle cx="135.65892467599127" cy="293.9252336448598" r="3" fill="#3498db" opacity="0.7"/>
<circle cx="302.5779545746183" cy="226.6355140186916" r="3" fill="#3498db" opacity="0.7"/>
<circle cx="235.2559989734377" cy="263.0841121495327" r="3" fill="#3498db" opacity="0.7"/>
<circle cx="215.66919029898628" cy="282.7102803738318" r="3" fill="#3498db" opacity="0.7"/>
<circle cx="214.56050301552676" cy="207.00934579439252" r="3" fill="#3498db" opacity="0.7"/>
<circle cx="118.47427178236879" cy="330.3738317757009" r="3" fill="#3498db" opacity="0.7"/>
<circle cx="244.00230976517386" cy="271.49532710280374" r="3" fill="#3498db" opacity="0.7"/>
<circle cx="201.07147440010266" cy="268.69158878504675" r="3" fill="#3498db" opacity="0.7"/>
<circle cx="243.07840369562427" cy="212.61682242990653" r="3" fill="#3498db" opacity="0.7"/>
<circle cx="177.23469780572307" cy="268.69158878504675" r="3" fill="#3498db" opacity="0.7"/>
<circle cx="163.06813807262927" cy="260.2803738317757" r="3" fill="#3498db" opacity="0.7"/>
<circle cx="314.588733478763" cy="209.81308411214954" r="3" fill="#3498db" opacity="0.7"/>
<circle cx="70" cy="350" r="3" fill="#3498db" opacity="0.7"/>
<circle cx="102.64468112408571" cy="307.94392523364485" r="3" fill="#3498db" opacity="0.7"/>
<circle cx="142.86539201847813" cy="282.7102803738318" r="3" fill="#3498db" opacity="0.7"/>
<circle cx="267.2847427178237" cy="218.22429906542055" r="3" fill="#3498db" opacity="0.7"/>
<circle cx="139.84729885794945" cy="316.3551401869159" r="3" fill="#3498db" opacity="0.7"/>
<circle cx="130.54664442448353" cy="296.7289719626168" r="3" fill="#3498db" opacity="0.7"/>
<circle cx="121.86192737071731" cy="319.1588785046729" r="3" fill="#3498db" opacity="0.7"/>
<circle cx="142.80379828050815" cy="333.1775700934579" r="3" fill="#3498db" opacity="0.7"/>
<circle cx="163.12973181059925" cy="324.76635514018693" r="3" fill="#3498db" opacity="0.7"/>
<circle cx="185.4882586936995" cy="254.6728971962617" r="3" fill="#3498db" opacity="0.7"/>
<circle cx="162.82176312074938" cy="307.94392523364485" r="3" fill="#3498db" opacity="0.7"/>
<circle cx="171.62966765045553" cy="274.29906542056074" r="3" fill="#3498db" opacity="0.7"/>
<circle cx="313.1720775054536" cy="232.2429906542056" r="3" fill="#3498db" opacity="0.7"/>
<circle cx="164.97754394969843" cy="319.1588785046729" r="3" fill="#3498db" opacity="0.7"/>
<circle cx="212.09675349672784" cy="291.1214953271028" r="3" fill="#3498db" opacity="0.7"/>
<circle cx="191.21647632490695" cy="310.74766355140184" r="3" fill="#3498db" opacity="0.7"/>
<circle cx="234.45528037982805" cy="229.4392523364486" r="3" fill="#3498db" opacity="0.7"/>
<circle cx="183.27088412678046" cy="305.14018691588785" r="3" fill="#3498db" opacity="0.7"/>
<circle cx="189.7382266136276" cy="279.9065420560748" r="3" fill="#3498db" opacity="0.7"/>
<circle cx="205.62941100988064" cy="260.2803738317757" r="3" fill="#3498db" opacity="0.7"/>
<circle cx="150.50301552675478" cy="285.5140186915888" r="3" fill="#3498db" opacity="0.7"/>
<circle cx="115.51777235981008" cy="313.5514018691589" r="3" fill="#3498db" opacity="0.7"/>
<circle cx="121.49236494289747" cy="310.74766355140184" r="3" fill="#3498db" opacity="0.7"/>
<circle cx="219.11843962530475" cy="293.9252336448598" r="3" fill="#3498db" opacity="0.7"/>
<circle cx="216.7162838444758" cy="232.2429906542056" r="3" fill="#3498db" opacity="0.7"/>
<circle cx="144.9595791094572" cy="296.7289719626168" r="3" fill="#3498db" opacity="0.7"/>
<circle cx="200.33234954446297" cy="235.04672897196264" r="3" fill="#3498db" opacity="0.7"/>
<circle cx="175.01732323880407" cy="296.7289719626168" r="3" fill="#3498db" opacity="0.7"/>
<circle cx="87.30784036956243" cy="321.96261682242994" r="3" fill="#3498db" opacity="0.7"/>
<circle cx="97.40921339663801" cy="350" r="3" fill="#3498db" opacity="0.7"/>
<circle cx="163.86885666623894" cy="321.96261682242994" r="3" fill="#3498db" opacity="0.7"/>
<circle cx="158.94135762864107" cy="307.94392523364485" r="3" fill="#3498db" opacity="0.7"/>
<circle cx="142.31104837674837" cy="321.96261682242994" r="3" fill="#3498db" opacity="0.7"/>
<circle cx="248.7450275888618" cy="274.29906542056074" r="3" fill="#3498db" opacity="0.7"/>
<circle cx="187.0281021429488" cy="237.85046728971963" r="3" fill="#3498db" opacity="0.7"/>
<circle cx="130.05389452072373" cy="299.53271028037386" r="3" fill="#3498db" opacity="0.7"/>
<circle cx="117.11920954702939" cy="341.58878504672896" r="3" fill="#3498db" opacity="0.7"/>
<circle cx="295.67945592198123" cy="243.45794392523365" r="3" fill="#3498db" opacity="0.7"/>
<circle cx="263.71230591556525" cy="232.2429906542056" r="3" fill="#3498db" opacity="0.7"/>
<circle cx="175.57166688053383" cy="279.9065420560748" r="3" fill="#3498db" opacity="0.7"/>
<circle cx="183.45566534069036" cy="246.26168224299067" r="3" fill="#3498db" opacity="0.7"/>
<circle cx="189.67663287565762" cy="246.26168224299067" r="3" fill="#3498db" opacity="0.7"/>
<circle cx="124.32567688951623" cy="293.9252336448598" r="3" fill="#3498db" opacity="0.7"/>
<circle cx="108.18811754138329" cy="321.96261682242994" r="3" fill="#3498db" opacity="0.7"/>
<circle cx="175.44847940459385" cy="313.5514018691589" r="3" fill="#3498db" opacity="0.7"/>
<circle cx="147.731297318106" cy="291.1214953271028" r="3" fill="#3498db" opacity="0.7"/>
<circle cx="158.69498267676119" cy="263.0841121495327" r="3" fill="#3498db" opacity="0.7"/>
<circle cx="173.72385474143462" cy="243.45794392523365" r="3" fill="#3498db" opacity="0.7"/>
<circle cx="176.0028230463236" cy="316.3551401869159" r="3" fill="#3498db" opacity="0.7"/>
<circle cx="95.31502630565893" cy="319.1588785046729" r="3" fill="#3498db" opacity="0.7"/>
<circle cx="142.31104837674837" cy="321.96261682242994" r="3" fill="#3498db" opacity="0.7"/>
<circle cx="200.7019119722828" cy="296.7289719626168" r="3" fill="#3498db" opacity="0.7"/>
<circle cx="207.04606698319003" cy="263.0841121495327" r="3" fill="#3498db" opacity="0.7"/>
<circle cx="274.61439753625046" cy="243.45794392523365" r="3" fill="#3498db" opacity="0.7"/>
<circle cx="171.69126138842552" cy="282.7102803738318" r="3" fill="#3498db" opacity="0.7"/>
<circle cx="217.76337738996537" cy="293.9252336448598" r="3" fill="#3498db" opacity="0.7"/>
<circle cx="141.38714230719876" cy="310.74766355140184" r="3" fill="#3498db" opacity="0.7"/>
<circle cx="202.24175542153213" cy="302.33644859813086" r="3" fill="#3498db" opacity="0.7"/>
<circle cx="314.588733478763" cy="226.6355140186916" r="3" fill="#3498db" opacity="0.7"/>
<circle cx="238.95162325163608" cy="246.26168224299067" r="3" fill="#3498db" opacity="0.7"/>
<circle cx="165.59348132939817" cy="279.9065420560748" r="3" fill="#3498db" opacity="0.7"/>
<circle cx="215.66919029898628" cy="268.69158878504675" r="3" fill="#3498db" opacity="0.7"/>
<circle cx="214.49890927755678" cy="265.8878504672897" r="3" fill="#3498db" opacity="0.7"/>
<circle cx="163.19132554856924" cy="285.5140186915888" r="3" fill="#3498db" opacity="0.7"/>
<circle cx="129.9307070447838" cy="324.76635514018693" r="3" fill="#3498db" opacity="0.7"/>
<circle cx="216.65469010650585" cy="271.49532710280374" r="3" fill="#3498db" opacity="0.7"/>
<circle cx="158.14063903503143" cy="282.7102803738318" r="3" fill="#3498db" opacity="0.7"/>
<circle cx="250.40805851405108" cy="268.69158878504675" r="3" fill="#3498db" opacity="0.7"/>
<circle cx="178.22019761324265" cy="296.7289719626168" r="3" fill="#3498db" opacity="0.7"/>
<circle cx="105.35480559476454" cy="307.94392523364485" r="3" fill="#3498db" opacity="0.7"/>
<circle cx="186.16578981136917" cy="302.33644859813086" r="3" fill="#3498db" opacity="0.7"/>
<circle cx="240.5530604388554" cy="279.9065420560748" r="3" fill="#3498db" opacity="0.7"/>
<circle cx="262.41883741819584" cy="249.06542056074767" r="3" fill="#3498db" opacity="0.7"/>
<circle cx="266.91518029000383" cy="221.02803738317758" r="3" fill="#3498db" opacity="0.7"/>
<circle cx="266.1760554343642" cy="260.2803738317757" r="3" fill="#3498db" opacity="0.7"/>
<circle cx="217.4554087001155" cy="293.9252336448598" r="3" fill="#3498db" opacity="0.7"/>
<circle cx="178.8361349929424" cy="254.6728971962617" r="3" fill="#3498db" opacity="0.7"/>
<circle cx="201.31784935198255" cy="293.9252336448598" r="3" fill="#3498db" opacity="0.7"/>
<circle cx="130.54664442448353" cy="344.392523364486" r="3" fill="#3498db" opacity="0.7"/>
<circle cx="168.54998075195687" cy="291.1214953271028" r="3" fill="#3498db" opacity="0.7"/>
<circle cx="385.483125882202" cy="184.57943925233647" r="3" fill="#3498db" opacity="0.7"/>
<circle cx="134.11908122674197" cy="279.9065420560748" r="3" fill="#3498db" opacity="0.7"/>
<circle cx="302.33157962273833" cy="229.4392523364486" r="3" fill="#3498db" opacity="0.7"/>
<circle cx="347.7261645066085" cy="181.77570093457945" r="3" fill="#3498db" opacity="0.7"/>
<circle cx="217.51700243808546" cy="263.0841121495327" r="3" fill="#3498db" opacity="0.7"/>
<circle cx="197.00628769408445" cy="277.1028037383178" r="3" fill="#3498db" opacity="0.7"/>
<circle cx="233.28499935839858" cy="246.26168224299067" r="3" fill="#3498db" opacity="0.7"/>
<circle cx="262.78839984601564" cy="237.85046728971963" r="3" fill="#3498db" opacity="0.7"/>
<circle cx="267.3463364557937" cy="232.2429906542056" r="3" fill="#3498db" opacity="0.7"/>
<circle cx="295.30989349416143" cy="204.20560747663552" r="3" fill="#3498db" opacity="0.7"/>
<circle cx="288.9041447452842" cy="164.9532710280374" r="3" fill="#3498db" opacity="0.7"/>
<circle cx="158.2638265109714" cy="291.1214953271028" r="3" fill="#3498db" opacity="0.7"/>
<circle cx="181.2998845117413" cy="310.74766355140184" r="3" fill="#3498db" opacity="0.7"/>
<circle cx="294.63236237649176" cy="187.38317757009347" r="3" fill="#3498db" opacity="0.7"/>
<circle cx="212.6510971384576" cy="243.45794392523365" r="3" fill="#3498db" opacity="0.7"/>
<circle cx="322.8422943667394" cy="173.36448598130843" r="3" fill="#3498db" opacity="0.7"/>
<circle cx="187.27447709482868" cy="254.6728971962617" r="3" fill="#3498db" opacity="0.7"/>
<circle cx="282.43680225843707" cy="190.1869158878505" r="3" fill="#3498db" opacity="0.7"/>
<circle cx="161.77466957525985" cy="263.0841121495327" r="3" fill="#3498db" opacity="0.7"/>
<circle cx="234.64006159373795" cy="257.4766355140187" r="3" fill="#3498db" opacity="0.7"/>
<circle cx="241.6617477223149" cy="207.00934579439252" r="3" fill="#3498db" opacity="0.7"/>
<circle cx="438.5769280123187" cy="142.52336448598132" r="3" fill="#3498db" opacity="0.7"/>
<circle cx="281.3897087129475" cy="195.7943925233645" r="3" fill="#3498db" opacity="0.7"/>
<circle cx="250.03849608623122" cy="176.16822429906543" r="3" fill="#3498db" opacity="0.7"/>
<circle cx="393.6750930322084" cy="142.52336448598132" r="3" fill="#3498db" opacity="0.7"/>
<circle cx="210.49531630950852" cy="265.8878504672897" r="3" fill="#3498db" opacity="0.7"/>
<circle cx="161.40510714744" cy="288.31775700934577" r="3" fill="#3498db" opacity="0.7"/>
<circle cx="365.4035673039907" cy="156.54205607476638" r="3" fill="#3498db" opacity="0.7"/>
<circle cx="408.8271525728218" cy="170.5607476635514" r="3" fill="#3498db" opacity="0.7"/>
<circle cx="271.71949185166176" cy="190.1869158878505" r="3" fill="#3498db" opacity="0.7"/>
<circle cx="378.27665853971513" cy="178.97196261682245" r="3" fill="#3498db" opacity="0.7"/>
<circle cx="232.7306557166688" cy="201.4018691588785" r="3" fill="#3498db" opacity="0.7"/>
<circle cx="177.11151032978313" cy="243.45794392523365" r="3" fill="#3498db" opacity="0.7"/>
<circle cx="114.40908507635058" cy="305.14018691588785" r="3" fill="#3498db" opacity="0.7"/>
<circle cx="301.0381111253689" cy="201.4018691588785" r="3" fill="#3498db" opacity="0.7"/>
<circle cx="349.3276016938278" cy="134.11214953271028" r="3" fill="#3498db" opacity="0.7"/>
<circle cx="293.954831258822" cy="184.57943925233647" r="3" fill="#3498db" opacity="0.7"/>
<circle cx="426.442961632234" cy="120.09345794392524" r="3" fill="#3498db" opacity="0.7"/>
<circle cx="307.38226613627614" cy="218.22429906542055" r="3" fill="#3498db" opacity="0.7"/>
<circle cx="326.8458873347876" cy="195.7943925233645" r="3" fill="#3498db" opacity="0.7"/>
<circle cx="224.35390735275246" cy="263.0841121495327" r="3" fill="#3498db" opacity="0.7"/>
<circle cx="404.5771846528936" cy="156.54205607476638" r="3" fill="#3498db" opacity="0.7"/>
<circle cx="326.35313743102785" cy="173.36448598130843" r="3" fill="#3498db" opacity="0.7"/>
<circle cx="419.91402540741694" cy="122.89719626168224" r="3" fill="#3498db" opacity="0.7"/>
<circle cx="363.5557551648916" cy="198.5981308411215" r="3" fill="#3498db" opacity="0.7"/>
<circle cx="379.75490825099445" cy="134.11214953271028" r="3" fill="#3498db" opacity="0.7"/>
<circle cx="373.4107532400873" cy="170.5607476635514" r="3" fill="#3498db" opacity="0.7"/>
<circle cx="209.2018478121391" cy="254.6728971962617" r="3" fill="#3498db" opacity="0.7"/>
<circle cx="392.87437443859875" cy="134.11214953271028" r="3" fill="#3498db" opacity="0.7"/>
<text x="550" y="40" text-anchor="end" font-size="14" fill="#34495e">r = 0.912</text></svg>